#!OML:ASF I:\Actors\actors\Patient Classification 2\Patient 1\Session 1\actor1.ASF
:FULLY-SPECIFIED
:DEGREES
467
root -0.714461 18.5779 6.99772 2.10673 -1.7943 -6.10339
lowerback 4.64666 0.126892 0.829586
upperback -2.78979 0.259378 0.616625
thorax -5.49877 0.109808 0.150017
lowerneck -0.757098 -17.3124 -14.2602
upperneck 4.84224 -23.9076 13.6462
head 4.90729 -11.7916 4.58584
rclavicle -1.31695e-014 1.03368e-014
rhumerus -36.4562 10.8006 -91.3401
rradius 119.462
rwrist 17.8743
rhand 14.7867 -50.7516
rfingers 7.12502
rthumb 39.6508 -436.082
lclavicle -1.31695e-014 1.03368e-014
lhumerus -27.7851 -18.9048 97.9107
lradius 121.596
lwrist -22.9535
lhand 43.2717 -0.757907
lfingers 7.12502
lthumb 65.0454 6.34316
rfemur 10.4388 1.47081 20.024
rtibia -1.90833e-014
rfoot -17.5957 -11.1805
rtoes -15.8625
lfemur -4.62689 -3.05596 -8.18882
ltibia 27.6491
lfoot -24.4611 9.31312
ltoes -58.1892
468
root -0.715231 18.5785 7.00233 2.089 -2.1634 -6.17314
lowerback 4.31484 0.0942627 0.612322
upperback -2.56215 0.201566 0.760713
thorax -5.07239 0.0928696 0.426641
lowerneck -1.00992 -17.2719 -14.2593
upperneck 4.84131 -23.8363 13.7866
head 4.95642 -11.7413 4.61116
rclavicle 9.34288e-015 1.59028e-015
rhumerus -36.5646 10.4054 -91.5327
rradius 119.986
rwrist 18.1568
rhand 14.988 -50.7383
rfingers 7.12502
rthumb 39.8403 -436.012
lclavicle 9.34288e-015 1.59028e-015
lhumerus -27.3185 -18.7364 97.8917
lradius 121.578
lwrist -22.9575
lhand 43.3119 -0.802998
lfingers 7.12502
lthumb 65.0771 6.245
rfemur 10.4392 1.84147 20.109
rtibia 9.54166e-015
rfoot -17.6745 -11.2005
rtoes -15.5798
lfemur -4.52265 -2.92753 -8.14584
ltibia 27.7566
lfoot -24.6368 9.39505
ltoes -58.0864
469
root -0.705016 18.5753 7.00372 1.96511 -2.47144 -6.52426
lowerback 4.82332 0.0953896 1.21421
upperback -2.79651 0.252887 0.721003
thorax -5.60627 0.093789 0.0429046
lowerneck -0.813984 -17.2228 -14.3354
upperneck 5.12231 -23.838 13.8753
head 5.03238 -11.7461 4.65144
rclavicle 4.84538e-015 1.98785e-014
rhumerus -37.0798 10.1179 -91.7758
rradius 120.112
rwrist 18.3404
rhand 15.0529 -50.8024
rfingers 7.12502
rthumb 39.9014 -436.058
lclavicle 4.84538e-015 1.98785e-014
lhumerus -27.7491 -18.8413 97.9734
lradius 121.657
lwrist -22.9867
lhand 43.4327 -0.890376
lfingers 7.12502
lthumb 65.1723 5.99706
rfemur 10.5665 2.16049 20.4795
rtibia -3.97569e-014
rfoot -17.6914 -11.2553
rtoes -15.5612
lfemur -4.26816 -2.7904 -7.81513
ltibia 27.7783
lfoot -24.7184 9.45189
ltoes -58.0417
470
root -0.674206 18.5635 6.99735 1.67634 -2.66407 -7.39747
lowerback 4.99049 -0.0521192 2.42931
upperback -2.52866 0.15398 0.925517
thorax -5.42192 0.00656677 -0.417294
lowerneck -1.02862 -17.125 -14.2031
upperneck 5.03453 -23.6749 13.9156
head 5.00769 -11.6552 4.65527
rclavicle -3.23025e-016 -2.06736e-014
rhumerus -36.675 10.2023 -91.7812
rradius 120.059
rwrist 18.4803
rhand 15.2912 -50.787
rfingers 7.12502
rthumb 40.1257 -435.975
lclavicle -3.23025e-016 -2.06736e-014
lhumerus -27.3241 -18.6954 97.8278
lradius 121.658
lwrist -22.9886
lhand 43.4848 -1.00137
lfingers 7.12502
lthumb 65.2133 5.81641
rfemur 10.8958 2.37569 21.3761
rtibia 2.38542e-014
rfoot -17.6439 -11.3514
rtoes -16.1222
lfemur -3.83524 -2.62278 -6.93564
ltibia 27.7975
lfoot -24.7554 9.39388
ltoes -58.0823
471
root -0.69815 18.5724 7.00953 1.95389 -3.11343 -6.68187
lowerback 4.54141 -0.00180527 1.18115
upperback -2.6268 0.118845 0.838677
thorax -5.26865 0.0327694 0.195804
lowerneck -1.15358 -17.0282 -13.9852
upperneck 5.2017 -23.5278 13.687
head 5.00444 -11.5788 4.57112
rclavicle 9.31803e-015 0
rhumerus -36.8579 10.4432 -91.7149
rradius 120.091
rwrist 18.5069
rhand 15.2657 -50.6333
rfingers 7.12502
rthumb 40.1017 -435.829
lclavicle 9.31803e-015 0
lhumerus -27.3048 -18.6452 97.7896
lradius 121.698
lwrist -22.9038
lhand 43.5809 -0.928925
lfingers 7.12502
lthumb 65.2887 5.75982
rfemur 10.5402 2.80752 20.6572
rtibia -2.38542e-014
rfoot -17.6172 -11.4064
rtoes -16.1237
lfemur -4.01828 -2.45075 -7.70333
ltibia 27.7528
lfoot -24.8208 9.64363
ltoes -58.0555
472
root -0.704036 18.5754 7.01397 2.05181 -3.44327 -6.48322
lowerback 4.78805 0.0586064 1.08048
upperback -2.97178 0.190335 0.625843
thorax -5.7706 0.0647979 0.0254177
lowerneck -1.0568 -16.9637 -13.924
upperneck 5.63282 -23.4988 13.6069
head 5.10041 -11.5645 4.53902
rclavicle 4.37326e-015 1.59028e-015
rhumerus -37.1887 10.5185 -91.8156
rradius 119.928
rwrist 18.4426
rhand 14.9257 -50.7018
rfingers 7.12502
rthumb 39.7817 -435.993
lclavicle 4.37326e-015 1.59028e-015
lhumerus -27.7987 -18.8838 97.7755
lradius 121.78
lwrist -22.8765
lhand 43.725 -0.837076
lfingers 7.12502
lthumb 65.4016 5.65665
rfemur 10.3889 3.13227 20.4559
rtibia 2.8625e-014
rfoot -17.6142 -11.4603
rtoes -16.0405
lfemur -4.00099 -2.34109 -7.9385
ltibia 27.6932
lfoot -24.8673 9.78337
ltoes -57.9968
473
root -0.700393 18.5751 7.01503 2.04204 -3.63096 -6.51178
lowerback 5.05475 0.0392783 1.17285
upperback -3.17394 0.176089 0.587126
thorax -6.13646 0.0510202 -0.0651569
lowerneck -1.08477 -16.8277 -13.9007
upperneck 5.94343 -23.3394 13.5288
head 5.16677 -11.4831 4.52359
rclavicle -8.15017e-015 4.77083e-015
rhumerus -37.8956 10.0716 -92.0874
rradius 120.34
rwrist 18.6046
rhand 14.912 -50.6158
rfingers 7.12502
rthumb 39.7688 -435.911
lclavicle -8.15017e-015 4.77083e-015
lhumerus -28.1257 -18.96 97.8636
lradius 121.84
lwrist -22.978
lhand 43.7978 -0.832979
lfingers 7.12502
lthumb 65.4585 5.56153
rfemur 10.3797 3.3232 20.4786
rtibia 4.77083e-015
rfoot -17.6254 -11.4886
rtoes -16.0847
lfemur -3.83876 -2.32377 -7.94041
ltibia 27.5384
lfoot -24.8696 9.85558
ltoes -57.8971
474
root -0.697349 18.5743 7.01682 2.0092 -3.80423 -6.52803
lowerback 4.99466 0.0007047 1.06825
upperback -3.1543 0.120057 0.674602
thorax -6.08205 0.0299793 0.090276
lowerneck -1.35001 -16.6152 -13.5998
upperneck 6.10612 -22.9965 13.1319
head 5.12989 -11.309 4.39722
rclavicle 3.18055e-015 -7.95139e-016
rhumerus -37.8872 10.1167 -91.9482
rradius 120.354
rwrist 18.4386
rhand 14.8275 -50.7343
rfingers 7.12502
rthumb 39.6892 -436.053
lclavicle 3.18055e-015 -7.95139e-016
lhumerus -28.1017 -18.8886 97.9842
lradius 121.863
lwrist -23.0713
lhand 43.7928 -0.843994
lfingers 7.12502
lthumb 65.4547 5.55725
rfemur 10.4039 3.49884 20.4926
rtibia 3.97569e-014
rfoot -17.6285 -11.5218
rtoes -16.2497
lfemur -3.71146 -2.3178 -7.95399
ltibia 27.4927
lfoot -24.923 9.92142
ltoes -57.7977
475
root -0.694652 18.5736 7.01918 1.9744 -4.0002 -6.56419
lowerback 4.36951 -0.0497803 0.994846
upperback -2.77942 0.03676 0.753828
thorax -5.33048 -0.00343225 0.219982
lowerneck -2.00314 -16.3177 -12.9912
upperneck 6.19121 -22.4836 12.6266
head 5.06555 -11.0349 4.19562
rclavicle -8.17502e-015 2.38542e-015
rhumerus -37.1932 10.2512 -91.7529
rradius 120.221
rwrist 18.3684
rhand 14.7709 -50.7
rfingers 7.12502
rthumb 39.6359 -436.035
lclavicle -8.17502e-015 2.38542e-015
lhumerus -27.4547 -18.78 97.8371
lradius 121.808
lwrist -23.0578
lhand 43.7772 -0.795968
lfingers 7.12502
lthumb 65.4425 5.62664
rfemur 10.4315 3.69639 20.5388
rtibia 1.59028e-015
rfoot -17.59 -11.6057
rtoes -16.492
lfemur -3.59387 -2.312 -7.9518
ltibia 27.4869
lfoot -25.0005 10.0311
ltoes -57.7618
476
root -0.691762 18.5727 7.01983 1.9379 -4.13152 -6.61548
lowerback 4.13824 -0.0913743 1.01306
upperback -2.64964 -0.0213522 0.788665
thorax -5.06293 -0.031204 0.249987
lowerneck -2.77673 -15.8905 -12.3871
upperneck 6.69359 -21.8252 12.0296
head 5.12781 -10.683 3.96048
rclavicle -5.76476e-015 7.15625e-015
rhumerus -36.8948 10.2819 -91.6869
rradius 120.163
rwrist 18.5253
rhand 14.8978 -50.6627
rfingers 7.12502
rthumb 39.7554 -435.962
lclavicle -5.76476e-015 7.15625e-015
lhumerus -27.1715 -18.7494 97.7685
lradius 121.751
lwrist -23.0033
lhand 43.7224 -0.743626
lfingers 7.12502
lthumb 65.3996 5.75364
rfemur 10.4679 3.82933 20.606
rtibia 1.90833e-014
rfoot -17.5519 -11.7081
rtoes -16.7901
lfemur -3.50158 -2.33506 -7.93003
ltibia 27.4909
lfoot -25.0424 10.0973
ltoes -57.7673
